<svg width="139" height="72" viewBox="0 0 139 72" fill="none" xmlns="http://www.w3.org/2000/svg">
<path d="M120.89 44.6606C120.89 46.6162 120.459 48.244 119.611 49.4996C118.772 50.758 117.718 51.7034 116.474 52.312C115.242 52.9205 114.013 53.2307 112.825 53.2307C110.852 53.2307 109.204 52.5513 107.933 51.213C106.669 49.8688 106.031 48.0343 106.031 45.7595V25.2013H100.459V46.0993C100.459 48.891 100.923 51.2425 101.842 53.0919C102.763 54.9383 104.054 56.3445 105.676 57.2691C107.289 58.1761 109.156 58.6369 111.224 58.6369C113.724 58.6369 115.827 58.0431 117.475 56.8733C118.964 55.8038 120.111 54.5069 120.89 53.0151V58.2145H126.462V25.2013H120.89V44.6635V44.6606Z" fill="#011829"/>
<path d="M92.1492 37.3903C90.8671 36.4804 89.5022 35.7507 88.093 35.2219C86.7193 34.7049 85.4549 34.2913 84.3294 33.9929L79.9158 32.8053C79.1241 32.5985 78.2437 32.3238 77.3043 31.99C76.3707 31.6473 75.4638 31.2071 74.6159 30.6872C73.7828 30.1613 73.0886 29.5027 72.5509 28.7257C72.0369 27.9488 71.7769 27.0034 71.7769 25.9133C71.7769 24.6046 72.1551 23.42 72.9025 22.3949C73.6676 21.3579 74.7518 20.5308 76.1167 19.937C77.5081 19.3373 79.1595 19.033 81.0236 19.033C83.5701 19.033 85.7444 19.612 87.4904 20.7582C89.2068 21.8838 90.1994 23.4879 90.4416 25.5263L90.4712 25.7863H96.1049L96.0931 25.482C96.0222 23.2486 95.319 21.225 94.0103 19.4702C92.7193 17.7213 90.9468 16.3269 88.7459 15.3254C86.551 14.3121 84.0074 13.8011 81.192 13.8011C78.3766 13.8011 75.8419 14.321 73.576 15.3461C71.3161 16.3624 69.4874 17.8129 68.1403 19.6622C66.7991 21.5056 66.1196 23.6947 66.1196 26.1674C66.1196 29.1541 67.1477 31.6059 69.1713 33.4553C71.1654 35.278 73.904 36.699 77.3102 37.6798L82.6307 39.2012C84.1285 39.6178 85.5436 40.1111 86.8346 40.6665C88.096 41.2101 89.127 41.922 89.8981 42.7876C90.6455 43.6266 91.0266 44.7404 91.0266 46.0963C91.0266 47.5971 90.5805 48.9265 89.6972 50.0491C88.805 51.1717 87.5731 52.0639 86.0399 52.702C84.4948 53.3312 82.7193 53.6503 80.7696 53.6503C79.0945 53.6503 77.5051 53.3992 76.0546 52.9058C74.6307 52.4036 73.4342 51.6355 72.5037 50.6222C71.5938 49.6059 71.065 48.3002 70.932 46.7404L70.9084 46.4715H64.9172L64.9409 46.7876C65.1122 49.1953 65.8626 51.343 67.1713 53.1658C68.4918 54.9885 70.3205 56.4272 72.61 57.4435C74.9025 58.4538 77.6499 58.9679 80.7725 58.9679C84.1226 58.9679 87.0148 58.3977 89.3634 57.2721C91.7385 56.1407 93.5702 54.5927 94.8021 52.6695C96.0517 50.7433 96.6869 48.5602 96.6869 46.1761C96.6869 44.1052 96.2526 42.3297 95.3988 40.8969C94.551 39.473 93.4579 38.2943 92.1492 37.3873V37.3903Z" fill="#011829"/>
<path d="M138.102 16.7126C138.102 15.7023 137.715 14.8279 136.956 14.1129C136.212 13.401 135.308 13.0406 134.262 13.0406C133.216 13.0406 132.306 13.401 131.547 14.1159C130.799 14.8308 130.421 15.7053 130.421 16.7156C130.421 17.7259 130.799 18.5974 131.55 19.3153C132.306 20.0273 133.219 20.3877 134.265 20.3877C135.31 20.3877 136.129 20.0598 136.85 19.4157L136.882 19.3862C136.909 19.3626 136.935 19.3389 136.962 19.3124L137.068 19.209C137.76 18.5118 138.108 17.6728 138.108 16.7126H138.102Z" fill="#011829"/>
<path d="M137.003 25.1978H131.431V58.2113H137.003V25.1978Z" fill="#011829"/>
<path fill-rule="evenodd" clip-rule="evenodd" d="M45.7884 30.0573C48.7131 33.7294 50.462 38.3734 50.462 43.4251C50.462 48.4768 48.6599 53.2626 45.6584 56.9554L45.3985 57.2744L45.3305 56.8697C45.2714 56.527 45.2035 56.1784 45.1237 55.8298C43.62 49.2242 38.7219 43.561 30.6599 38.9731C25.2153 35.883 22.0986 32.1666 21.2803 27.9391C20.7515 25.2065 21.1444 22.462 21.9036 20.1105C22.6628 17.7619 23.7913 15.7914 24.7515 14.6068L27.8888 10.7722C28.4383 10.0986 29.4693 10.0986 30.0188 10.7722L45.7914 30.0573H45.7884ZM50.7485 26.2257L29.7264 0.524018C29.3246 0.0336199 28.5742 0.0336199 28.1724 0.524018L7.15322 26.2257L7.08527 26.3114C3.2182 31.1119 0.9021 37.2124 0.9021 43.8534C0.9021 59.3187 13.4605 71.8564 28.9494 71.8564C44.4383 71.8564 56.9967 59.3187 56.9967 43.8534C56.9967 37.2124 54.6806 31.1119 50.8135 26.3143L50.7456 26.2286L50.7485 26.2257ZM12.1842 29.9745L14.0631 27.6732L14.1193 28.0987C14.1636 28.4354 14.2197 28.7722 14.2847 29.1119C15.5018 35.496 19.8475 40.8165 27.1119 44.9376C33.428 48.5329 37.106 52.6659 38.1636 57.1976C38.6067 59.0883 38.6835 60.9495 38.4915 62.5772L38.4797 62.6777L38.3881 62.722C35.5373 64.1134 32.332 64.8963 28.9464 64.8963C17.0676 64.8963 7.43682 55.2833 7.43682 43.4221C7.43682 38.3291 9.2123 33.6525 12.1783 29.9686L12.1842 29.9745Z" fill="#011829"/>
</svg>
